<!-- Generated by IcoMoon.io -->
<svg version="1.1" xmlns="http://www.w3.org/2000/svg" width="1024" height="1024" viewBox="0 0 1024 1024">
<title></title>
<g id="icomoon-ignore">
</g>
<path fill="#607D8B" d="M695.172 205.93c-48.965-51.54-103.634-96.885-163.214-135.264l-3.493-2.107c-4.7-2.863-10.384-4.559-16.465-4.559s-11.765 1.695-16.607 4.639l0.142-0.080c-63.073 40.486-117.742 85.831-166.349 136.991l-0.358 0.38c-110.449 115.973-168.828 243.938-168.828 370.070 0 194.404 157.596 352 352 352s352-157.596 352-352v0c0-126.133-58.379-254.098-168.828-370.070zM512 864c-70.659-0.083-127.917-57.341-128-127.992v-0.008c0-110.691 90.105-189.109 127.996-217.188 37.932 28.105 128.004 106.516 128.004 217.188-0.083 70.659-57.341 127.917-127.992 128h-0.008z"></path>
</svg>
