<svg xmlns="http://www.w3.org/2000/svg" aria-hidden="true" style="position:absolute;width:0;height:0;overflow:hidden">
  <defs>
    <symbol id="icon-instagram" viewBox="0 0 32 32">
      <path d="M9.391.196C6.786.314 4.529.95 2.706 2.766.877 4.591.248 6.857.13 9.434c-.073 1.609-.501 13.763.74 16.95a8.065 8.065 0 0 0 4.657 4.644c1.013.394 2.168.661 3.864.738 14.177.642 19.433.292 21.649-5.382.393-1.01.664-2.165.739-3.856.648-14.214-.105-17.295-2.576-19.763C27.243.81 24.938-.521 9.391.195zm.131 28.712c-1.552-.07-2.394-.329-2.956-.546a5.205 5.205 0 0 1-3.022-3.013c-.946-2.422-.632-13.925-.548-15.786.083-1.823.452-3.489 1.739-4.775C6.327 3.2 8.384 2.422 22.389 3.054c1.828.083 3.498.451 4.787 1.734 1.592 1.588 2.382 3.661 1.739 17.612-.07 1.548-.33 2.389-.548 2.949-1.441 3.692-4.756 4.205-18.845 3.559zM22.543 7.503c0 1.051.855 1.906 1.91 1.906s1.912-.854 1.912-1.906a1.91 1.91 0 0 0-3.822 0zM7.78 15.981c0 4.504 3.66 8.155 8.175 8.155s8.175-3.651 8.175-8.155-3.66-8.153-8.175-8.153-8.175 3.649-8.175 8.153zm2.869 0c0-2.922 2.375-5.293 5.306-5.293s5.306 2.371 5.306 5.293c0 2.924-2.375 5.295-5.306 5.295s-5.306-2.371-5.306-5.295z"/>
    </symbol>
    <symbol id="icon-phone" viewBox="0 0 32 32">
      <path d="M22 20c-2 2-2 4-4 4s-4-2-6-4-4-4-4-6 2-2 4-4-4-8-6-8-6 6-6 6c0 4 4.109 12.109 8 16s12 8 16 8c0 0 6-4 6-6s-6-8-8-6z"/>
    </symbol>
    <symbol id="icon-viber" viewBox="0 0 32 32">
      <path d="M19.047 0h-6.095C6.568 0 1.374 5.193 1.374 11.575v5.491c0 4.753 2.921 9.025 7.313 10.765v3.559a.61.61 0 0 0 1.019.451l3.534-3.201h5.808c6.384 0 11.578-5.193 11.578-11.575v-5.491c0-6.383-5.194-11.575-11.578-11.575zm10.359 17.066c0 5.711-4.647 10.357-10.359 10.357h-6.043a.607.607 0 0 0-.409.158l-2.689 2.436v-2.608a.608.608 0 0 0-.406-.574 10.379 10.379 0 0 1-6.906-9.769v-5.491c0-5.711 4.647-10.357 10.359-10.357h6.095c5.712 0 10.359 4.646 10.359 10.357v5.491z"/>
      <path d="m24.053 18.582-3.745-2.433a1.825 1.825 0 0 0-2.529.536l-.176.271c-1.621-.536-3.408-1.22-4.478-4.318l.443-.385c.761-.661.84-1.818.179-2.58l-2.93-3.371a.61.61 0 0 0-.86-.06l-1.84 1.599c-1.614 1.403-.86 3.478-.612 4.16a.58.58 0 0 0 .04.088c.064.115 1.592 2.841 4.059 5.354 2.477 2.523 6.95 4.854 7.087 4.921a3.051 3.051 0 0 0 4.215-.895l1.327-2.044a.611.611 0 0 0-.18-.844zm-2.17 2.224c-.549.846-1.684 1.086-2.58.508-.044-.023-4.488-2.337-6.829-4.723-2.189-2.23-3.642-4.707-3.84-5.053-.483-1.353-.397-2.185.283-2.776l1.38-1.199 2.53 2.91a.602.602 0 0 1-.059.86l-.748.65a.61.61 0 0 0-.183.639c1.275 4.143 3.754 4.956 5.564 5.55l.264.087a.607.607 0 0 0 .704-.246l.432-.665c.089-.138.225-.231.384-.264s.321-.002.459.087l3.235 2.101-.996 1.534zM17.391 9.901a.608.608 0 1 0-.334 1.172 2.756 2.756 0 0 1 1.887 1.892.61.61 0 0 0 1.173-.331 3.984 3.984 0 0 0-2.726-2.733z"/>
      <path d="M22.028 13.54a.61.61 0 0 0 .587-.775 7.739 7.739 0 0 0-5.295-5.307.609.609 0 1 0-.334 1.173 6.51 6.51 0 0 1 4.455 4.466.61.61 0 0 0 .586.444z"/>
      <path d="M17.058 4.62a.61.61 0 0 0-.334 1.173 11.032 11.032 0 0 1 7.549 7.566.61.61 0 0 0 1.173-.331c-1.139-4.038-4.353-7.26-8.388-8.408z"/>
    </symbol>
    <symbol id="icon-flame-fill-svgrepo-com" viewBox="0 0 32 32">
      <path d="M21.724 6.435a27.777 27.777 0 0 0-5.1-4.227l-.109-.066a.996.996 0 0 0-1.034.003l.004-.002a27.822 27.822 0 0 0-5.198 4.281l-.011.012C6.824 10.06 5 14.059 5 18.001c0 6.075 4.925 11 11 11s11-4.925 11-11c0-3.942-1.824-7.941-5.276-11.565zM16 27a4.005 4.005 0 0 1-4-4c0-3.459 2.816-5.91 4-6.787 1.185.878 4 3.329 4 6.787a4.005 4.005 0 0 1-4 4z"/>
    </symbol>
  </defs>
</svg>
